<?xml version="1.0" encoding="UTF-8"?>
<svg id="_Слой_2" data-name="Слой 2" xmlns="http://www.w3.org/2000/svg" xmlns:xlink="http://www.w3.org/1999/xlink" viewBox="0 0 1000 1000">
  <defs>
    <style>
      .cls-1 {
        clip-path: url(#clippath);
      }

      .cls-2 {
        fill: none;
      }
    </style>
    <clipPath id="clippath">
      <rect class="cls-2" width="1000" height="1000"/>
    </clipPath>
  </defs>
  <g id="Layer_1" data-name="Layer 1">
    <g class="cls-1">
      <g id="all_4" data-name="all 4">
        <g id="shape_4_1" data-name="shape 4 1">
          <path d="m42.8,51.8c-1.2-1.2-1.2-2.4,0-3.6l5.4-5.4c1.2-1.2,2.4-1.2,3.6,0l5.4,5.4c1.2,1.2,1.2,2.4,0,3.6l-5.4,5.4c-1.2,1.2-2.4,1.2-3.6,0l-5.4-5.4Z"/>
        </g>
        <g id="shape_4_1-2" data-name="shape 4 1">
          <path d="m39.92,152.52c-1.68-1.68-1.68-3.36,0-5.04l7.56-7.56c1.68-1.68,3.36-1.68,5.04,0l7.56,7.56c1.68,1.68,1.68,3.36,0,5.04l-7.56,7.56c-1.68,1.68-3.36,1.68-5.04,0l-7.56-7.56Z"/>
        </g>
        <g id="shape_4_1-3" data-name="shape 4 1">
          <path d="m37.04,253.24c-2.16-2.16-2.16-4.32,0-6.48l9.72-9.72c2.16-2.16,4.32-2.16,6.48,0l9.72,9.72c2.16,2.16,2.16,4.32,0,6.48l-9.72,9.72c-2.16,2.16-4.32,2.16-6.48,0l-9.72-9.72Z"/>
        </g>
        <g id="shape_4_1-4" data-name="shape 4 1">
          <path d="m34.16,353.96c-2.64-2.64-2.64-5.28,0-7.92l11.88-11.88c2.64-2.64,5.28-2.64,7.92,0l11.88,11.88c2.64,2.64,2.64,5.28,0,7.92l-11.88,11.88c-2.64,2.64-5.28,2.64-7.92,0l-11.88-11.88Z"/>
        </g>
        <g id="shape_4_1-5" data-name="shape 4 1">
          <path d="m31.28,454.68c-3.12-3.12-3.12-6.24,0-9.36l14.04-14.04c3.12-3.12,6.24-3.12,9.36,0l14.04,14.04c3.12,3.12,3.12,6.24,0,9.36l-14.04,14.04c-3.12,3.12-6.24,3.12-9.36,0l-14.04-14.04Z"/>
        </g>
        <g id="shape_4_1-6" data-name="shape 4 1">
          <path d="m28.4,555.4c-3.6-3.6-3.6-7.2,0-10.8l16.2-16.2c3.6-3.6,7.2-3.6,10.8,0l16.2,16.2c3.6,3.6,3.6,7.2,0,10.8l-16.2,16.2c-3.6,3.6-7.2,3.6-10.8,0l-16.2-16.2Z"/>
        </g>
        <g id="shape_4_1-7" data-name="shape 4 1">
          <path d="m25.52,656.12c-4.08-4.08-4.08-8.16,0-12.24l18.36-18.36c4.08-4.08,8.16-4.08,12.24,0l18.36,18.36c4.08,4.08,4.08,8.16,0,12.24l-18.36,18.36c-4.08,4.08-8.16,4.08-12.24,0l-18.36-18.36Z"/>
        </g>
        <g id="shape_4_1-8" data-name="shape 4 1">
          <path d="m22.64,756.84c-4.56-4.56-4.56-9.12,0-13.68l20.52-20.52c4.56-4.56,9.12-4.56,13.68,0l20.52,20.52c4.56,4.56,4.56,9.12,0,13.68l-20.52,20.52c-4.56,4.56-9.12,4.56-13.68,0l-20.52-20.52Z"/>
        </g>
        <g id="shape_4_1-9" data-name="shape 4 1">
          <path d="m19.76,857.56c-5.04-5.04-5.04-10.08,0-15.12l22.68-22.68c5.04-5.04,10.08-5.04,15.12,0l22.68,22.68c5.04,5.04,5.04,10.08,0,15.12l-22.68,22.68c-5.04,5.04-10.08,5.04-15.12,0l-22.68-22.68Z"/>
        </g>
        <g id="shape_4_1-10" data-name="shape 4 1">
          <path d="m16.88,958.28c-5.52-5.52-5.52-11.04,0-16.56l24.84-24.84c5.52-5.52,11.04-5.52,16.56,0l24.84,24.84c5.52,5.52,5.52,11.04,0,16.56l-24.84,24.84c-5.52,5.52-11.04,5.52-16.56,0l-24.84-24.84Z"/>
        </g>
        <g id="shape_4_1-11" data-name="shape 4 1">
          <path d="m142.8,51.8c-1.2-1.2-1.2-2.4,0-3.6l5.4-5.4c1.2-1.2,2.4-1.2,3.6,0l5.4,5.4c1.2,1.2,1.2,2.4,0,3.6l-5.4,5.4c-1.2,1.2-2.4,1.2-3.6,0l-5.4-5.4Z"/>
        </g>
        <g id="shape_4_1-12" data-name="shape 4 1">
          <path d="m139.92,152.52c-1.68-1.68-1.68-3.36,0-5.04l7.56-7.56c1.68-1.68,3.36-1.68,5.04,0l7.56,7.56c1.68,1.68,1.68,3.36,0,5.04l-7.56,7.56c-1.68,1.68-3.36,1.68-5.04,0l-7.56-7.56Z"/>
        </g>
        <g id="shape_4_1-13" data-name="shape 4 1">
          <path d="m137.04,253.24c-2.16-2.16-2.16-4.32,0-6.48l9.72-9.72c2.16-2.16,4.32-2.16,6.48,0l9.72,9.72c2.16,2.16,2.16,4.32,0,6.48l-9.72,9.72c-2.16,2.16-4.32,2.16-6.48,0l-9.72-9.72Z"/>
        </g>
        <g id="shape_4_1-14" data-name="shape 4 1">
          <path d="m134.16,353.96c-2.64-2.64-2.64-5.28,0-7.92l11.88-11.88c2.64-2.64,5.28-2.64,7.92,0l11.88,11.88c2.64,2.64,2.64,5.28,0,7.92l-11.88,11.88c-2.64,2.64-5.28,2.64-7.92,0l-11.88-11.88Z"/>
        </g>
        <g id="shape_4_1-15" data-name="shape 4 1">
          <path d="m131.28,454.68c-3.12-3.12-3.12-6.24,0-9.36l14.04-14.04c3.12-3.12,6.24-3.12,9.36,0l14.04,14.04c3.12,3.12,3.12,6.24,0,9.36l-14.04,14.04c-3.12,3.12-6.24,3.12-9.36,0l-14.04-14.04Z"/>
        </g>
        <g id="shape_4_1-16" data-name="shape 4 1">
          <path d="m128.4,555.4c-3.6-3.6-3.6-7.2,0-10.8l16.2-16.2c3.6-3.6,7.2-3.6,10.8,0l16.2,16.2c3.6,3.6,3.6,7.2,0,10.8l-16.2,16.2c-3.6,3.6-7.2,3.6-10.8,0l-16.2-16.2Z"/>
        </g>
        <g id="shape_4_1-17" data-name="shape 4 1">
          <path d="m125.52,656.12c-4.08-4.08-4.08-8.16,0-12.24l18.36-18.36c4.08-4.08,8.16-4.08,12.24,0l18.36,18.36c4.08,4.08,4.08,8.16,0,12.24l-18.36,18.36c-4.08,4.08-8.16,4.08-12.24,0l-18.36-18.36Z"/>
        </g>
        <g id="shape_4_1-18" data-name="shape 4 1">
          <path d="m122.64,756.84c-4.56-4.56-4.56-9.12,0-13.68l20.52-20.52c4.56-4.56,9.12-4.56,13.68,0l20.52,20.52c4.56,4.56,4.56,9.12,0,13.68l-20.52,20.52c-4.56,4.56-9.12,4.56-13.68,0l-20.52-20.52Z"/>
        </g>
        <g id="shape_4_1-19" data-name="shape 4 1">
          <path d="m119.76,857.56c-5.04-5.04-5.04-10.08,0-15.12l22.68-22.68c5.04-5.04,10.08-5.04,15.12,0l22.68,22.68c5.04,5.04,5.04,10.08,0,15.12l-22.68,22.68c-5.04,5.04-10.08,5.04-15.12,0l-22.68-22.68Z"/>
        </g>
        <g id="shape_4_1-20" data-name="shape 4 1">
          <path d="m116.88,958.28c-5.52-5.52-5.52-11.04,0-16.56l24.84-24.84c5.52-5.52,11.04-5.52,16.56,0l24.84,24.84c5.52,5.52,5.52,11.04,0,16.56l-24.84,24.84c-5.52,5.52-11.04,5.52-16.56,0l-24.84-24.84Z"/>
        </g>
        <g id="shape_4_1-21" data-name="shape 4 1">
          <path d="m242.8,51.8c-1.2-1.2-1.2-2.4,0-3.6l5.4-5.4c1.2-1.2,2.4-1.2,3.6,0l5.4,5.4c1.2,1.2,1.2,2.4,0,3.6l-5.4,5.4c-1.2,1.2-2.4,1.2-3.6,0l-5.4-5.4Z"/>
        </g>
        <g id="shape_4_1-22" data-name="shape 4 1">
          <path d="m239.92,152.52c-1.68-1.68-1.68-3.36,0-5.04l7.56-7.56c1.68-1.68,3.36-1.68,5.04,0l7.56,7.56c1.68,1.68,1.68,3.36,0,5.04l-7.56,7.56c-1.68,1.68-3.36,1.68-5.04,0l-7.56-7.56Z"/>
        </g>
        <g id="shape_4_1-23" data-name="shape 4 1">
          <path d="m237.04,253.24c-2.16-2.16-2.16-4.32,0-6.48l9.72-9.72c2.16-2.16,4.32-2.16,6.48,0l9.72,9.72c2.16,2.16,2.16,4.32,0,6.48l-9.72,9.72c-2.16,2.16-4.32,2.16-6.48,0l-9.72-9.72Z"/>
        </g>
        <g id="shape_4_1-24" data-name="shape 4 1">
          <path d="m234.16,353.96c-2.64-2.64-2.64-5.28,0-7.92l11.88-11.88c2.64-2.64,5.28-2.64,7.92,0l11.88,11.88c2.64,2.64,2.64,5.28,0,7.92l-11.88,11.88c-2.64,2.64-5.28,2.64-7.92,0l-11.88-11.88Z"/>
        </g>
        <g id="shape_4_1-25" data-name="shape 4 1">
          <path d="m231.28,454.68c-3.12-3.12-3.12-6.24,0-9.36l14.04-14.04c3.12-3.12,6.24-3.12,9.36,0l14.04,14.04c3.12,3.12,3.12,6.24,0,9.36l-14.04,14.04c-3.12,3.12-6.24,3.12-9.36,0l-14.04-14.04Z"/>
        </g>
        <g id="shape_4_1-26" data-name="shape 4 1">
          <path d="m228.4,555.4c-3.6-3.6-3.6-7.2,0-10.8l16.2-16.2c3.6-3.6,7.2-3.6,10.8,0l16.2,16.2c3.6,3.6,3.6,7.2,0,10.8l-16.2,16.2c-3.6,3.6-7.2,3.6-10.8,0l-16.2-16.2Z"/>
        </g>
        <g id="shape_4_1-27" data-name="shape 4 1">
          <path d="m225.52,656.12c-4.08-4.08-4.08-8.16,0-12.24l18.36-18.36c4.08-4.08,8.16-4.08,12.24,0l18.36,18.36c4.08,4.08,4.08,8.16,0,12.24l-18.36,18.36c-4.08,4.08-8.16,4.08-12.24,0l-18.36-18.36Z"/>
        </g>
        <g id="shape_4_1-28" data-name="shape 4 1">
          <path d="m222.64,756.84c-4.56-4.56-4.56-9.12,0-13.68l20.52-20.52c4.56-4.56,9.12-4.56,13.68,0l20.52,20.52c4.56,4.56,4.56,9.12,0,13.68l-20.52,20.52c-4.56,4.56-9.12,4.56-13.68,0l-20.52-20.52Z"/>
        </g>
        <g id="shape_4_1-29" data-name="shape 4 1">
          <path d="m219.76,857.56c-5.04-5.04-5.04-10.08,0-15.12l22.68-22.68c5.04-5.04,10.08-5.04,15.12,0l22.68,22.68c5.04,5.04,5.04,10.08,0,15.12l-22.68,22.68c-5.04,5.04-10.08,5.04-15.12,0l-22.68-22.68Z"/>
        </g>
        <g id="shape_4_1-30" data-name="shape 4 1">
          <path d="m216.88,958.28c-5.52-5.52-5.52-11.04,0-16.56l24.84-24.84c5.52-5.52,11.04-5.52,16.56,0l24.84,24.84c5.52,5.52,5.52,11.04,0,16.56l-24.84,24.84c-5.52,5.52-11.04,5.52-16.56,0l-24.84-24.84Z"/>
        </g>
        <g id="shape_4_1-31" data-name="shape 4 1">
          <path d="m342.8,51.8c-1.2-1.2-1.2-2.4,0-3.6l5.4-5.4c1.2-1.2,2.4-1.2,3.6,0l5.4,5.4c1.2,1.2,1.2,2.4,0,3.6l-5.4,5.4c-1.2,1.2-2.4,1.2-3.6,0l-5.4-5.4Z"/>
        </g>
        <g id="shape_4_1-32" data-name="shape 4 1">
          <path d="m339.92,152.52c-1.68-1.68-1.68-3.36,0-5.04l7.56-7.56c1.68-1.68,3.36-1.68,5.04,0l7.56,7.56c1.68,1.68,1.68,3.36,0,5.04l-7.56,7.56c-1.68,1.68-3.36,1.68-5.04,0l-7.56-7.56Z"/>
        </g>
        <g id="shape_4_1-33" data-name="shape 4 1">
          <path d="m337.04,253.24c-2.16-2.16-2.16-4.32,0-6.48l9.72-9.72c2.16-2.16,4.32-2.16,6.48,0l9.72,9.72c2.16,2.16,2.16,4.32,0,6.48l-9.72,9.72c-2.16,2.16-4.32,2.16-6.48,0l-9.72-9.72Z"/>
        </g>
        <g id="shape_4_1-34" data-name="shape 4 1">
          <path d="m334.16,353.96c-2.64-2.64-2.64-5.28,0-7.92l11.88-11.88c2.64-2.64,5.28-2.64,7.92,0l11.88,11.88c2.64,2.64,2.64,5.28,0,7.92l-11.88,11.88c-2.64,2.64-5.28,2.64-7.92,0l-11.88-11.88Z"/>
        </g>
        <g id="shape_4_1-35" data-name="shape 4 1">
          <path d="m331.28,454.68c-3.12-3.12-3.12-6.24,0-9.36l14.04-14.04c3.12-3.12,6.24-3.12,9.36,0l14.04,14.04c3.12,3.12,3.12,6.24,0,9.36l-14.04,14.04c-3.12,3.12-6.24,3.12-9.36,0l-14.04-14.04Z"/>
        </g>
        <g id="shape_4_1-36" data-name="shape 4 1">
          <path d="m328.4,555.4c-3.6-3.6-3.6-7.2,0-10.8l16.2-16.2c3.6-3.6,7.2-3.6,10.8,0l16.2,16.2c3.6,3.6,3.6,7.2,0,10.8l-16.2,16.2c-3.6,3.6-7.2,3.6-10.8,0l-16.2-16.2Z"/>
        </g>
        <g id="shape_4_1-37" data-name="shape 4 1">
          <path d="m325.52,656.12c-4.08-4.08-4.08-8.16,0-12.24l18.36-18.36c4.08-4.08,8.16-4.08,12.24,0l18.36,18.36c4.08,4.08,4.08,8.16,0,12.24l-18.36,18.36c-4.08,4.08-8.16,4.08-12.24,0l-18.36-18.36Z"/>
        </g>
        <g id="shape_4_1-38" data-name="shape 4 1">
          <path d="m322.64,756.84c-4.56-4.56-4.56-9.12,0-13.68l20.52-20.52c4.56-4.56,9.12-4.56,13.68,0l20.52,20.52c4.56,4.56,4.56,9.12,0,13.68l-20.52,20.52c-4.56,4.56-9.12,4.56-13.68,0l-20.52-20.52Z"/>
        </g>
        <g id="shape_4_1-39" data-name="shape 4 1">
          <path d="m319.76,857.56c-5.04-5.04-5.04-10.08,0-15.12l22.68-22.68c5.04-5.04,10.08-5.04,15.12,0l22.68,22.68c5.04,5.04,5.04,10.08,0,15.12l-22.68,22.68c-5.04,5.04-10.08,5.04-15.12,0l-22.68-22.68Z"/>
        </g>
        <g id="shape_4_1-40" data-name="shape 4 1">
          <path d="m316.88,958.28c-5.52-5.52-5.52-11.04,0-16.56l24.84-24.84c5.52-5.52,11.04-5.52,16.56,0l24.84,24.84c5.52,5.52,5.52,11.04,0,16.56l-24.84,24.84c-5.52,5.52-11.04,5.52-16.56,0l-24.84-24.84Z"/>
        </g>
        <g id="shape_4_1-41" data-name="shape 4 1">
          <path d="m442.8,51.8c-1.2-1.2-1.2-2.4,0-3.6l5.4-5.4c1.2-1.2,2.4-1.2,3.6,0l5.4,5.4c1.2,1.2,1.2,2.4,0,3.6l-5.4,5.4c-1.2,1.2-2.4,1.2-3.6,0l-5.4-5.4Z"/>
        </g>
        <g id="shape_4_1-42" data-name="shape 4 1">
          <path d="m439.92,152.52c-1.68-1.68-1.68-3.36,0-5.04l7.56-7.56c1.68-1.68,3.36-1.68,5.04,0l7.56,7.56c1.68,1.68,1.68,3.36,0,5.04l-7.56,7.56c-1.68,1.68-3.36,1.68-5.04,0l-7.56-7.56Z"/>
        </g>
        <g id="shape_4_1-43" data-name="shape 4 1">
          <path d="m437.04,253.24c-2.16-2.16-2.16-4.32,0-6.48l9.72-9.72c2.16-2.16,4.32-2.16,6.48,0l9.72,9.72c2.16,2.16,2.16,4.32,0,6.48l-9.72,9.72c-2.16,2.16-4.32,2.16-6.48,0l-9.72-9.72Z"/>
        </g>
        <g id="shape_4_1-44" data-name="shape 4 1">
          <path d="m434.16,353.96c-2.64-2.64-2.64-5.28,0-7.92l11.88-11.88c2.64-2.64,5.28-2.64,7.92,0l11.88,11.88c2.64,2.64,2.64,5.28,0,7.92l-11.88,11.88c-2.64,2.64-5.28,2.64-7.92,0l-11.88-11.88Z"/>
        </g>
        <g id="shape_4_1-45" data-name="shape 4 1">
          <path d="m431.28,454.68c-3.12-3.12-3.12-6.24,0-9.36l14.04-14.04c3.12-3.12,6.24-3.12,9.36,0l14.04,14.04c3.12,3.12,3.12,6.24,0,9.36l-14.04,14.04c-3.12,3.12-6.24,3.12-9.36,0l-14.04-14.04Z"/>
        </g>
        <g id="shape_4_1-46" data-name="shape 4 1">
          <path d="m428.4,555.4c-3.6-3.6-3.6-7.2,0-10.8l16.2-16.2c3.6-3.6,7.2-3.6,10.8,0l16.2,16.2c3.6,3.6,3.6,7.2,0,10.8l-16.2,16.2c-3.6,3.6-7.2,3.6-10.8,0l-16.2-16.2Z"/>
        </g>
        <g id="shape_4_1-47" data-name="shape 4 1">
          <path d="m425.52,656.12c-4.08-4.08-4.08-8.16,0-12.24l18.36-18.36c4.08-4.08,8.16-4.08,12.24,0l18.36,18.36c4.08,4.08,4.08,8.16,0,12.24l-18.36,18.36c-4.08,4.08-8.16,4.08-12.24,0l-18.36-18.36Z"/>
        </g>
        <g id="shape_4_1-48" data-name="shape 4 1">
          <path d="m422.64,756.84c-4.56-4.56-4.56-9.12,0-13.68l20.52-20.52c4.56-4.56,9.12-4.56,13.68,0l20.52,20.52c4.56,4.56,4.56,9.12,0,13.68l-20.52,20.52c-4.56,4.56-9.12,4.56-13.68,0l-20.52-20.52Z"/>
        </g>
        <g id="shape_4_1-49" data-name="shape 4 1">
          <path d="m419.76,857.56c-5.04-5.04-5.04-10.08,0-15.12l22.68-22.68c5.04-5.04,10.08-5.04,15.12,0l22.68,22.68c5.04,5.04,5.04,10.08,0,15.12l-22.68,22.68c-5.04,5.04-10.08,5.04-15.12,0l-22.68-22.68Z"/>
        </g>
        <g id="shape_4_1-50" data-name="shape 4 1">
          <path d="m416.88,958.28c-5.52-5.52-5.52-11.04,0-16.56l24.84-24.84c5.52-5.52,11.04-5.52,16.56,0l24.84,24.84c5.52,5.52,5.52,11.04,0,16.56l-24.84,24.84c-5.52,5.52-11.04,5.52-16.56,0l-24.84-24.84Z"/>
        </g>
        <g id="shape_4_1-51" data-name="shape 4 1">
          <path d="m542.8,51.8c-1.2-1.2-1.2-2.4,0-3.6l5.4-5.4c1.2-1.2,2.4-1.2,3.6,0l5.4,5.4c1.2,1.2,1.2,2.4,0,3.6l-5.4,5.4c-1.2,1.2-2.4,1.2-3.6,0l-5.4-5.4Z"/>
        </g>
        <g id="shape_4_1-52" data-name="shape 4 1">
          <path d="m539.92,152.52c-1.68-1.68-1.68-3.36,0-5.04l7.56-7.56c1.68-1.68,3.36-1.68,5.04,0l7.56,7.56c1.68,1.68,1.68,3.36,0,5.04l-7.56,7.56c-1.68,1.68-3.36,1.68-5.04,0l-7.56-7.56Z"/>
        </g>
        <g id="shape_4_1-53" data-name="shape 4 1">
          <path d="m537.04,253.24c-2.16-2.16-2.16-4.32,0-6.48l9.72-9.72c2.16-2.16,4.32-2.16,6.48,0l9.72,9.72c2.16,2.16,2.16,4.32,0,6.48l-9.72,9.72c-2.16,2.16-4.32,2.16-6.48,0l-9.72-9.72Z"/>
        </g>
        <g id="shape_4_1-54" data-name="shape 4 1">
          <path d="m534.16,353.96c-2.64-2.64-2.64-5.28,0-7.92l11.88-11.88c2.64-2.64,5.28-2.64,7.92,0l11.88,11.88c2.64,2.64,2.64,5.28,0,7.92l-11.88,11.88c-2.64,2.64-5.28,2.64-7.92,0l-11.88-11.88Z"/>
        </g>
        <g id="shape_4_1-55" data-name="shape 4 1">
          <path d="m531.28,454.68c-3.12-3.12-3.12-6.24,0-9.36l14.04-14.04c3.12-3.12,6.24-3.12,9.36,0l14.04,14.04c3.12,3.12,3.12,6.24,0,9.36l-14.04,14.04c-3.12,3.12-6.24,3.12-9.36,0l-14.04-14.04Z"/>
        </g>
        <g id="shape_4_1-56" data-name="shape 4 1">
          <path d="m528.4,555.4c-3.6-3.6-3.6-7.2,0-10.8l16.2-16.2c3.6-3.6,7.2-3.6,10.8,0l16.2,16.2c3.6,3.6,3.6,7.2,0,10.8l-16.2,16.2c-3.6,3.6-7.2,3.6-10.8,0l-16.2-16.2Z"/>
        </g>
        <g id="shape_4_1-57" data-name="shape 4 1">
          <path d="m525.52,656.12c-4.08-4.08-4.08-8.16,0-12.24l18.36-18.36c4.08-4.08,8.16-4.08,12.24,0l18.36,18.36c4.08,4.08,4.08,8.16,0,12.24l-18.36,18.36c-4.08,4.08-8.16,4.08-12.24,0l-18.36-18.36Z"/>
        </g>
        <g id="shape_4_1-58" data-name="shape 4 1">
          <path d="m522.64,756.84c-4.56-4.56-4.56-9.12,0-13.68l20.52-20.52c4.56-4.56,9.12-4.56,13.68,0l20.52,20.52c4.56,4.56,4.56,9.12,0,13.68l-20.52,20.52c-4.56,4.56-9.12,4.56-13.68,0l-20.52-20.52Z"/>
        </g>
        <g id="shape_4_1-59" data-name="shape 4 1">
          <path d="m519.76,857.56c-5.04-5.04-5.04-10.08,0-15.12l22.68-22.68c5.04-5.04,10.08-5.04,15.12,0l22.68,22.68c5.04,5.04,5.04,10.08,0,15.12l-22.68,22.68c-5.04,5.04-10.08,5.04-15.12,0l-22.68-22.68Z"/>
        </g>
        <g id="shape_4_1-60" data-name="shape 4 1">
          <path d="m516.88,958.28c-5.52-5.52-5.52-11.04,0-16.56l24.84-24.84c5.52-5.52,11.04-5.52,16.56,0l24.84,24.84c5.52,5.52,5.52,11.04,0,16.56l-24.84,24.84c-5.52,5.52-11.04,5.52-16.56,0l-24.84-24.84Z"/>
        </g>
        <g id="shape_4_1-61" data-name="shape 4 1">
          <path d="m642.8,51.8c-1.2-1.2-1.2-2.4,0-3.6l5.4-5.4c1.2-1.2,2.4-1.2,3.6,0l5.4,5.4c1.2,1.2,1.2,2.4,0,3.6l-5.4,5.4c-1.2,1.2-2.4,1.2-3.6,0l-5.4-5.4Z"/>
        </g>
        <g id="shape_4_1-62" data-name="shape 4 1">
          <path d="m639.92,152.52c-1.68-1.68-1.68-3.36,0-5.04l7.56-7.56c1.68-1.68,3.36-1.68,5.04,0l7.56,7.56c1.68,1.68,1.68,3.36,0,5.04l-7.56,7.56c-1.68,1.68-3.36,1.68-5.04,0l-7.56-7.56Z"/>
        </g>
        <g id="shape_4_1-63" data-name="shape 4 1">
          <path d="m637.04,253.24c-2.16-2.16-2.16-4.32,0-6.48l9.72-9.72c2.16-2.16,4.32-2.16,6.48,0l9.72,9.72c2.16,2.16,2.16,4.32,0,6.48l-9.72,9.72c-2.16,2.16-4.32,2.16-6.48,0l-9.72-9.72Z"/>
        </g>
        <g id="shape_4_1-64" data-name="shape 4 1">
          <path d="m634.16,353.96c-2.64-2.64-2.64-5.28,0-7.92l11.88-11.88c2.64-2.64,5.28-2.64,7.92,0l11.88,11.88c2.64,2.64,2.64,5.28,0,7.92l-11.88,11.88c-2.64,2.64-5.28,2.64-7.92,0l-11.88-11.88Z"/>
        </g>
        <g id="shape_4_1-65" data-name="shape 4 1">
          <path d="m631.28,454.68c-3.12-3.12-3.12-6.24,0-9.36l14.04-14.04c3.12-3.12,6.24-3.12,9.36,0l14.04,14.04c3.12,3.12,3.12,6.24,0,9.36l-14.04,14.04c-3.12,3.12-6.24,3.12-9.36,0l-14.04-14.04Z"/>
        </g>
        <g id="shape_4_1-66" data-name="shape 4 1">
          <path d="m628.4,555.4c-3.6-3.6-3.6-7.2,0-10.8l16.2-16.2c3.6-3.6,7.2-3.6,10.8,0l16.2,16.2c3.6,3.6,3.6,7.2,0,10.8l-16.2,16.2c-3.6,3.6-7.2,3.6-10.8,0l-16.2-16.2Z"/>
        </g>
        <g id="shape_4_1-67" data-name="shape 4 1">
          <path d="m625.52,656.12c-4.08-4.08-4.08-8.16,0-12.24l18.36-18.36c4.08-4.08,8.16-4.08,12.24,0l18.36,18.36c4.08,4.08,4.08,8.16,0,12.24l-18.36,18.36c-4.08,4.08-8.16,4.08-12.24,0l-18.36-18.36Z"/>
        </g>
        <g id="shape_4_1-68" data-name="shape 4 1">
          <path d="m622.64,756.84c-4.56-4.56-4.56-9.12,0-13.68l20.52-20.52c4.56-4.56,9.12-4.56,13.68,0l20.52,20.52c4.56,4.56,4.56,9.12,0,13.68l-20.52,20.52c-4.56,4.56-9.12,4.56-13.68,0l-20.52-20.52Z"/>
        </g>
        <g id="shape_4_1-69" data-name="shape 4 1">
          <path d="m619.76,857.56c-5.04-5.04-5.04-10.08,0-15.12l22.68-22.68c5.04-5.04,10.08-5.04,15.12,0l22.68,22.68c5.04,5.04,5.04,10.08,0,15.12l-22.68,22.68c-5.04,5.04-10.08,5.04-15.12,0l-22.68-22.68Z"/>
        </g>
        <g id="shape_4_1-70" data-name="shape 4 1">
          <path d="m616.88,958.28c-5.52-5.52-5.52-11.04,0-16.56l24.84-24.84c5.52-5.52,11.04-5.52,16.56,0l24.84,24.84c5.52,5.52,5.52,11.04,0,16.56l-24.84,24.84c-5.52,5.52-11.04,5.52-16.56,0l-24.84-24.84Z"/>
        </g>
        <g id="shape_4_1-71" data-name="shape 4 1">
          <path d="m742.8,51.8c-1.2-1.2-1.2-2.4,0-3.6l5.4-5.4c1.2-1.2,2.4-1.2,3.6,0l5.4,5.4c1.2,1.2,1.2,2.4,0,3.6l-5.4,5.4c-1.2,1.2-2.4,1.2-3.6,0l-5.4-5.4Z"/>
        </g>
        <g id="shape_4_1-72" data-name="shape 4 1">
          <path d="m739.92,152.52c-1.68-1.68-1.68-3.36,0-5.04l7.56-7.56c1.68-1.68,3.36-1.68,5.04,0l7.56,7.56c1.68,1.68,1.68,3.36,0,5.04l-7.56,7.56c-1.68,1.68-3.36,1.68-5.04,0l-7.56-7.56Z"/>
        </g>
        <g id="shape_4_1-73" data-name="shape 4 1">
          <path d="m737.04,253.24c-2.16-2.16-2.16-4.32,0-6.48l9.72-9.72c2.16-2.16,4.32-2.16,6.48,0l9.72,9.72c2.16,2.16,2.16,4.32,0,6.48l-9.72,9.72c-2.16,2.16-4.32,2.16-6.48,0l-9.72-9.72Z"/>
        </g>
        <g id="shape_4_1-74" data-name="shape 4 1">
          <path d="m734.16,353.96c-2.64-2.64-2.64-5.28,0-7.92l11.88-11.88c2.64-2.64,5.28-2.64,7.92,0l11.88,11.88c2.64,2.64,2.64,5.28,0,7.92l-11.88,11.88c-2.64,2.64-5.28,2.64-7.92,0l-11.88-11.88Z"/>
        </g>
        <g id="shape_4_1-75" data-name="shape 4 1">
          <path d="m731.28,454.68c-3.12-3.12-3.12-6.24,0-9.36l14.04-14.04c3.12-3.12,6.24-3.12,9.36,0l14.04,14.04c3.12,3.12,3.12,6.24,0,9.36l-14.04,14.04c-3.12,3.12-6.24,3.12-9.36,0l-14.04-14.04Z"/>
        </g>
        <g id="shape_4_1-76" data-name="shape 4 1">
          <path d="m728.4,555.4c-3.6-3.6-3.6-7.2,0-10.8l16.2-16.2c3.6-3.6,7.2-3.6,10.8,0l16.2,16.2c3.6,3.6,3.6,7.2,0,10.8l-16.2,16.2c-3.6,3.6-7.2,3.6-10.8,0l-16.2-16.2Z"/>
        </g>
        <g id="shape_4_1-77" data-name="shape 4 1">
          <path d="m725.52,656.12c-4.08-4.08-4.08-8.16,0-12.24l18.36-18.36c4.08-4.08,8.16-4.08,12.24,0l18.36,18.36c4.08,4.08,4.08,8.16,0,12.24l-18.36,18.36c-4.08,4.08-8.16,4.08-12.24,0l-18.36-18.36Z"/>
        </g>
        <g id="shape_4_1-78" data-name="shape 4 1">
          <path d="m722.64,756.84c-4.56-4.56-4.56-9.12,0-13.68l20.52-20.52c4.56-4.56,9.12-4.56,13.68,0l20.52,20.52c4.56,4.56,4.56,9.12,0,13.68l-20.52,20.52c-4.56,4.56-9.12,4.56-13.68,0l-20.52-20.52Z"/>
        </g>
        <g id="shape_4_1-79" data-name="shape 4 1">
          <path d="m719.76,857.56c-5.04-5.04-5.04-10.08,0-15.12l22.68-22.68c5.04-5.04,10.08-5.04,15.12,0l22.68,22.68c5.04,5.04,5.04,10.08,0,15.12l-22.68,22.68c-5.04,5.04-10.08,5.04-15.12,0l-22.68-22.68Z"/>
        </g>
        <g id="shape_4_1-80" data-name="shape 4 1">
          <path d="m716.88,958.28c-5.52-5.52-5.52-11.04,0-16.56l24.84-24.84c5.52-5.52,11.04-5.52,16.56,0l24.84,24.84c5.52,5.52,5.52,11.04,0,16.56l-24.84,24.84c-5.52,5.52-11.04,5.52-16.56,0l-24.84-24.84Z"/>
        </g>
        <g id="shape_4_1-81" data-name="shape 4 1">
          <path d="m842.8,51.8c-1.2-1.2-1.2-2.4,0-3.6l5.4-5.4c1.2-1.2,2.4-1.2,3.6,0l5.4,5.4c1.2,1.2,1.2,2.4,0,3.6l-5.4,5.4c-1.2,1.2-2.4,1.2-3.6,0l-5.4-5.4Z"/>
        </g>
        <g id="shape_4_1-82" data-name="shape 4 1">
          <path d="m839.92,152.52c-1.68-1.68-1.68-3.36,0-5.04l7.56-7.56c1.68-1.68,3.36-1.68,5.04,0l7.56,7.56c1.68,1.68,1.68,3.36,0,5.04l-7.56,7.56c-1.68,1.68-3.36,1.68-5.04,0l-7.56-7.56Z"/>
        </g>
        <g id="shape_4_1-83" data-name="shape 4 1">
          <path d="m837.04,253.24c-2.16-2.16-2.16-4.32,0-6.48l9.72-9.72c2.16-2.16,4.32-2.16,6.48,0l9.72,9.72c2.16,2.16,2.16,4.32,0,6.48l-9.72,9.72c-2.16,2.16-4.32,2.16-6.48,0l-9.72-9.72Z"/>
        </g>
        <g id="shape_4_1-84" data-name="shape 4 1">
          <path d="m834.16,353.96c-2.64-2.64-2.64-5.28,0-7.92l11.88-11.88c2.64-2.64,5.28-2.64,7.92,0l11.88,11.88c2.64,2.64,2.64,5.28,0,7.92l-11.88,11.88c-2.64,2.64-5.28,2.64-7.92,0l-11.88-11.88Z"/>
        </g>
        <g id="shape_4_1-85" data-name="shape 4 1">
          <path d="m831.28,454.68c-3.12-3.12-3.12-6.24,0-9.36l14.04-14.04c3.12-3.12,6.24-3.12,9.36,0l14.04,14.04c3.12,3.12,3.12,6.24,0,9.36l-14.04,14.04c-3.12,3.12-6.24,3.12-9.36,0l-14.04-14.04Z"/>
        </g>
        <g id="shape_4_1-86" data-name="shape 4 1">
          <path d="m828.4,555.4c-3.6-3.6-3.6-7.2,0-10.8l16.2-16.2c3.6-3.6,7.2-3.6,10.8,0l16.2,16.2c3.6,3.6,3.6,7.2,0,10.8l-16.2,16.2c-3.6,3.6-7.2,3.6-10.8,0l-16.2-16.2Z"/>
        </g>
        <g id="shape_4_1-87" data-name="shape 4 1">
          <path d="m825.52,656.12c-4.08-4.08-4.08-8.16,0-12.24l18.36-18.36c4.08-4.08,8.16-4.08,12.24,0l18.36,18.36c4.08,4.08,4.08,8.16,0,12.24l-18.36,18.36c-4.08,4.08-8.16,4.08-12.24,0l-18.36-18.36Z"/>
        </g>
        <g id="shape_4_1-88" data-name="shape 4 1">
          <path d="m822.64,756.84c-4.56-4.56-4.56-9.12,0-13.68l20.52-20.52c4.56-4.56,9.12-4.56,13.68,0l20.52,20.52c4.56,4.56,4.56,9.12,0,13.68l-20.52,20.52c-4.56,4.56-9.12,4.56-13.68,0l-20.52-20.52Z"/>
        </g>
        <g id="shape_4_1-89" data-name="shape 4 1">
          <path d="m819.76,857.56c-5.04-5.04-5.04-10.08,0-15.12l22.68-22.68c5.04-5.04,10.08-5.04,15.12,0l22.68,22.68c5.04,5.04,5.04,10.08,0,15.12l-22.68,22.68c-5.04,5.04-10.08,5.04-15.12,0l-22.68-22.68Z"/>
        </g>
        <g id="shape_4_1-90" data-name="shape 4 1">
          <path d="m816.88,958.28c-5.52-5.52-5.52-11.04,0-16.56l24.84-24.84c5.52-5.52,11.04-5.52,16.56,0l24.84,24.84c5.52,5.52,5.52,11.04,0,16.56l-24.84,24.84c-5.52,5.52-11.04,5.52-16.56,0l-24.84-24.84Z"/>
        </g>
        <g id="shape_4_1-91" data-name="shape 4 1">
          <path d="m942.8,51.8c-1.2-1.2-1.2-2.4,0-3.6l5.4-5.4c1.2-1.2,2.4-1.2,3.6,0l5.4,5.4c1.2,1.2,1.2,2.4,0,3.6l-5.4,5.4c-1.2,1.2-2.4,1.2-3.6,0l-5.4-5.4Z"/>
        </g>
        <g id="shape_4_1-92" data-name="shape 4 1">
          <path d="m939.92,152.52c-1.68-1.68-1.68-3.36,0-5.04l7.56-7.56c1.68-1.68,3.36-1.68,5.04,0l7.56,7.56c1.68,1.68,1.68,3.36,0,5.04l-7.56,7.56c-1.68,1.68-3.36,1.68-5.04,0l-7.56-7.56Z"/>
        </g>
        <g id="shape_4_1-93" data-name="shape 4 1">
          <path d="m937.04,253.24c-2.16-2.16-2.16-4.32,0-6.48l9.72-9.72c2.16-2.16,4.32-2.16,6.48,0l9.72,9.72c2.16,2.16,2.16,4.32,0,6.48l-9.72,9.72c-2.16,2.16-4.32,2.16-6.48,0l-9.72-9.72Z"/>
        </g>
        <g id="shape_4_1-94" data-name="shape 4 1">
          <path d="m934.16,353.96c-2.64-2.64-2.64-5.28,0-7.92l11.88-11.88c2.64-2.64,5.28-2.64,7.92,0l11.88,11.88c2.64,2.64,2.64,5.28,0,7.92l-11.88,11.88c-2.64,2.64-5.28,2.64-7.92,0l-11.88-11.88Z"/>
        </g>
        <g id="shape_4_1-95" data-name="shape 4 1">
          <path d="m931.28,454.68c-3.12-3.12-3.12-6.24,0-9.36l14.04-14.04c3.12-3.12,6.24-3.12,9.36,0l14.04,14.04c3.12,3.12,3.12,6.24,0,9.36l-14.04,14.04c-3.12,3.12-6.24,3.12-9.36,0l-14.04-14.04Z"/>
        </g>
        <g id="shape_4_1-96" data-name="shape 4 1">
          <path d="m928.4,555.4c-3.6-3.6-3.6-7.2,0-10.8l16.2-16.2c3.6-3.6,7.2-3.6,10.8,0l16.2,16.2c3.6,3.6,3.6,7.2,0,10.8l-16.2,16.2c-3.6,3.6-7.2,3.6-10.8,0l-16.2-16.2Z"/>
        </g>
        <g id="shape_4_1-97" data-name="shape 4 1">
          <path d="m925.52,656.12c-4.08-4.08-4.08-8.16,0-12.24l18.36-18.36c4.08-4.08,8.16-4.08,12.24,0l18.36,18.36c4.08,4.08,4.08,8.16,0,12.24l-18.36,18.36c-4.08,4.08-8.16,4.08-12.24,0l-18.36-18.36Z"/>
        </g>
        <g id="shape_4_1-98" data-name="shape 4 1">
          <path d="m922.64,756.84c-4.56-4.56-4.56-9.12,0-13.68l20.52-20.52c4.56-4.56,9.12-4.56,13.68,0l20.52,20.52c4.56,4.56,4.56,9.12,0,13.68l-20.52,20.52c-4.56,4.56-9.12,4.56-13.68,0l-20.52-20.52Z"/>
        </g>
        <g id="shape_4_1-99" data-name="shape 4 1">
          <path d="m919.76,857.56c-5.04-5.04-5.04-10.08,0-15.12l22.68-22.68c5.04-5.04,10.08-5.04,15.12,0l22.68,22.68c5.04,5.04,5.04,10.08,0,15.12l-22.68,22.68c-5.04,5.04-10.08,5.04-15.12,0l-22.68-22.68Z"/>
        </g>
        <g id="shape_4_1-100" data-name="shape 4 1">
          <path d="m916.88,958.28c-5.52-5.52-5.52-11.04,0-16.56l24.84-24.84c5.52-5.52,11.04-5.52,16.56,0l24.84,24.84c5.52,5.52,5.52,11.04,0,16.56l-24.84,24.84c-5.52,5.52-11.04,5.52-16.56,0l-24.84-24.84Z"/>
        </g>
        <g id="shape_other_4_1" data-name="shape other 4 1">
          <path d="m-6.4,1.6c-1.07-1.07-1.07-2.13,0-3.2L-1.6-6.4c1.07-1.07,2.13-1.07,3.2,0L6.4-1.6c1.07,1.07,1.07,2.13,0,3.2L1.6,6.4c-1.07,1.07-2.13,1.07-3.2,0L-6.4,1.6Z"/>
        </g>
        <g id="shape_other_4_1-2" data-name="shape other 4 1">
          <path d="m-9.6,102.4c-1.6-1.6-1.6-3.2,0-4.8l7.2-7.2c1.6-1.6,3.2-1.6,4.8,0l7.2,7.2c1.6,1.6,1.6,3.2,0,4.8l-7.2,7.2c-1.6,1.6-3.2,1.6-4.8,0l-7.2-7.2Z"/>
        </g>
        <g id="shape_other_4_1-3" data-name="shape other 4 1">
          <path d="m-12.8,203.2c-2.13-2.13-2.13-4.27,0-6.4l9.6-9.6c2.13-2.13,4.27-2.13,6.4,0l9.6,9.6c2.13,2.13,2.13,4.27,0,6.4l-9.6,9.6c-2.13,2.13-4.27,2.13-6.4,0l-9.6-9.6Z"/>
        </g>
        <g id="shape_other_4_1-4" data-name="shape other 4 1">
          <path d="m-16,304c-2.67-2.67-2.67-5.33,0-8l12-12c2.67-2.67,5.33-2.67,8,0l12,12c2.67,2.67,2.67,5.33,0,8l-12,12c-2.67,2.67-5.33,2.67-8,0l-12-12Z"/>
        </g>
        <g id="shape_other_4_1-5" data-name="shape other 4 1">
          <path d="m-19.2,404.8c-3.2-3.2-3.2-6.4,0-9.6l14.4-14.4c3.2-3.2,6.4-3.2,9.6,0l14.4,14.4c3.2,3.2,3.2,6.4,0,9.6l-14.4,14.4c-3.2,3.2-6.4,3.2-9.6,0l-14.4-14.4Z"/>
        </g>
        <g id="shape_other_4_1-6" data-name="shape other 4 1">
          <path d="m-22.4,505.6c-3.73-3.73-3.73-7.47,0-11.2l16.8-16.8c3.73-3.73,7.47-3.73,11.2,0l16.8,16.8c3.73,3.73,3.73,7.47,0,11.2l-16.8,16.8c-3.73,3.73-7.47,3.73-11.2,0l-16.8-16.8Z"/>
        </g>
        <g id="shape_other_4_1-7" data-name="shape other 4 1">
          <path d="m-25.6,606.4c-4.27-4.27-4.27-8.53,0-12.8l19.2-19.2c4.27-4.27,8.53-4.27,12.8,0l19.2,19.2c4.27,4.27,4.27,8.53,0,12.8l-19.2,19.2c-4.27,4.27-8.53,4.27-12.8,0l-19.2-19.2Z"/>
        </g>
        <g id="shape_other_4_1-8" data-name="shape other 4 1">
          <path d="m-28.8,707.2c-4.8-4.8-4.8-9.6,0-14.4l21.6-21.6c4.8-4.8,9.6-4.8,14.4,0l21.6,21.6c4.8,4.8,4.8,9.6,0,14.4l-21.6,21.6c-4.8,4.8-9.6,4.8-14.4,0l-21.6-21.6Z"/>
        </g>
        <g id="shape_other_4_1-9" data-name="shape other 4 1">
          <path d="m-32,808c-5.33-5.33-5.33-10.67,0-16l24-24c5.33-5.33,10.67-5.33,16,0l24,24c5.33,5.33,5.33,10.67,0,16l-24,24c-5.33,5.33-10.67,5.33-16,0l-24-24Z"/>
        </g>
        <g id="shape_other_4_1-10" data-name="shape other 4 1">
          <path d="m-35.2,908.8c-5.87-5.87-5.87-11.73,0-17.6l26.4-26.4c5.87-5.87,11.73-5.87,17.6,0l26.4,26.4c5.87,5.87,5.87,11.73,0,17.6l-26.4,26.4c-5.87,5.87-11.73,5.87-17.6,0l-26.4-26.4Z"/>
        </g>
        <g id="shape_other_4_1-11" data-name="shape other 4 1">
          <path d="m-38.4,1009.6c-6.4-6.4-6.4-12.8,0-19.2l28.8-28.8c6.4-6.4,12.8-6.4,19.2,0l28.8,28.8c6.4,6.4,6.4,12.8,0,19.2l-28.8,28.8c-6.4,6.4-12.8,6.4-19.2,0l-28.8-28.8Z"/>
        </g>
        <g id="shape_other_4_1-12" data-name="shape other 4 1">
          <path d="m93.6,1.6c-1.07-1.07-1.07-2.13,0-3.2l4.8-4.8c1.07-1.07,2.13-1.07,3.2,0l4.8,4.8c1.07,1.07,1.07,2.13,0,3.2l-4.8,4.8c-1.07,1.07-2.13,1.07-3.2,0l-4.8-4.8Z"/>
        </g>
        <g id="shape_other_4_1-13" data-name="shape other 4 1">
          <path d="m90.4,102.4c-1.6-1.6-1.6-3.2,0-4.8l7.2-7.2c1.6-1.6,3.2-1.6,4.8,0l7.2,7.2c1.6,1.6,1.6,3.2,0,4.8l-7.2,7.2c-1.6,1.6-3.2,1.6-4.8,0l-7.2-7.2Z"/>
        </g>
        <g id="shape_other_4_1-14" data-name="shape other 4 1">
          <path d="m87.2,203.2c-2.13-2.13-2.13-4.27,0-6.4l9.6-9.6c2.13-2.13,4.27-2.13,6.4,0l9.6,9.6c2.13,2.13,2.13,4.27,0,6.4l-9.6,9.6c-2.13,2.13-4.27,2.13-6.4,0l-9.6-9.6Z"/>
        </g>
        <g id="shape_other_4_1-15" data-name="shape other 4 1">
          <path d="m84,304c-2.67-2.67-2.67-5.33,0-8l12-12c2.67-2.67,5.33-2.67,8,0l12,12c2.67,2.67,2.67,5.33,0,8l-12,12c-2.67,2.67-5.33,2.67-8,0l-12-12Z"/>
        </g>
        <g id="shape_other_4_1-16" data-name="shape other 4 1">
          <path d="m80.8,404.8c-3.2-3.2-3.2-6.4,0-9.6l14.4-14.4c3.2-3.2,6.4-3.2,9.6,0l14.4,14.4c3.2,3.2,3.2,6.4,0,9.6l-14.4,14.4c-3.2,3.2-6.4,3.2-9.6,0l-14.4-14.4Z"/>
        </g>
        <g id="shape_other_4_1-17" data-name="shape other 4 1">
          <path d="m77.6,505.6c-3.73-3.73-3.73-7.47,0-11.2l16.8-16.8c3.73-3.73,7.47-3.73,11.2,0l16.8,16.8c3.73,3.73,3.73,7.47,0,11.2l-16.8,16.8c-3.73,3.73-7.47,3.73-11.2,0l-16.8-16.8Z"/>
        </g>
        <g id="shape_other_4_1-18" data-name="shape other 4 1">
          <path d="m74.4,606.4c-4.27-4.27-4.27-8.53,0-12.8l19.2-19.2c4.27-4.27,8.53-4.27,12.8,0l19.2,19.2c4.27,4.27,4.27,8.53,0,12.8l-19.2,19.2c-4.27,4.27-8.53,4.27-12.8,0l-19.2-19.2Z"/>
        </g>
        <g id="shape_other_4_1-19" data-name="shape other 4 1">
          <path d="m71.2,707.2c-4.8-4.8-4.8-9.6,0-14.4l21.6-21.6c4.8-4.8,9.6-4.8,14.4,0l21.6,21.6c4.8,4.8,4.8,9.6,0,14.4l-21.6,21.6c-4.8,4.8-9.6,4.8-14.4,0l-21.6-21.6Z"/>
        </g>
        <g id="shape_other_4_1-20" data-name="shape other 4 1">
          <path d="m68,808c-5.33-5.33-5.33-10.67,0-16l24-24c5.33-5.33,10.67-5.33,16,0l24,24c5.33,5.33,5.33,10.67,0,16l-24,24c-5.33,5.33-10.67,5.33-16,0l-24-24Z"/>
        </g>
        <g id="shape_other_4_1-21" data-name="shape other 4 1">
          <path d="m64.8,908.8c-5.87-5.87-5.87-11.73,0-17.6l26.4-26.4c5.87-5.87,11.73-5.87,17.6,0l26.4,26.4c5.87,5.87,5.87,11.73,0,17.6l-26.4,26.4c-5.87,5.87-11.73,5.87-17.6,0l-26.4-26.4Z"/>
        </g>
        <g id="shape_other_4_1-22" data-name="shape other 4 1">
          <path d="m61.6,1009.6c-6.4-6.4-6.4-12.8,0-19.2l28.8-28.8c6.4-6.4,12.8-6.4,19.2,0l28.8,28.8c6.4,6.4,6.4,12.8,0,19.2l-28.8,28.8c-6.4,6.4-12.8,6.4-19.2,0l-28.8-28.8Z"/>
        </g>
        <g id="shape_other_4_1-23" data-name="shape other 4 1">
          <path d="m193.6,1.6c-1.07-1.07-1.07-2.13,0-3.2l4.8-4.8c1.07-1.07,2.13-1.07,3.2,0l4.8,4.8c1.07,1.07,1.07,2.13,0,3.2l-4.8,4.8c-1.07,1.07-2.13,1.07-3.2,0l-4.8-4.8Z"/>
        </g>
        <g id="shape_other_4_1-24" data-name="shape other 4 1">
          <path d="m190.4,102.4c-1.6-1.6-1.6-3.2,0-4.8l7.2-7.2c1.6-1.6,3.2-1.6,4.8,0l7.2,7.2c1.6,1.6,1.6,3.2,0,4.8l-7.2,7.2c-1.6,1.6-3.2,1.6-4.8,0l-7.2-7.2Z"/>
        </g>
        <g id="shape_other_4_1-25" data-name="shape other 4 1">
          <path d="m187.2,203.2c-2.13-2.13-2.13-4.27,0-6.4l9.6-9.6c2.13-2.13,4.27-2.13,6.4,0l9.6,9.6c2.13,2.13,2.13,4.27,0,6.4l-9.6,9.6c-2.13,2.13-4.27,2.13-6.4,0l-9.6-9.6Z"/>
        </g>
        <g id="shape_other_4_1-26" data-name="shape other 4 1">
          <path d="m184,304c-2.67-2.67-2.67-5.33,0-8l12-12c2.67-2.67,5.33-2.67,8,0l12,12c2.67,2.67,2.67,5.33,0,8l-12,12c-2.67,2.67-5.33,2.67-8,0l-12-12Z"/>
        </g>
        <g id="shape_other_4_1-27" data-name="shape other 4 1">
          <path d="m180.8,404.8c-3.2-3.2-3.2-6.4,0-9.6l14.4-14.4c3.2-3.2,6.4-3.2,9.6,0l14.4,14.4c3.2,3.2,3.2,6.4,0,9.6l-14.4,14.4c-3.2,3.2-6.4,3.2-9.6,0l-14.4-14.4Z"/>
        </g>
        <g id="shape_other_4_1-28" data-name="shape other 4 1">
          <path d="m177.6,505.6c-3.73-3.73-3.73-7.47,0-11.2l16.8-16.8c3.73-3.73,7.47-3.73,11.2,0l16.8,16.8c3.73,3.73,3.73,7.47,0,11.2l-16.8,16.8c-3.73,3.73-7.47,3.73-11.2,0l-16.8-16.8Z"/>
        </g>
        <g id="shape_other_4_1-29" data-name="shape other 4 1">
          <path d="m174.4,606.4c-4.27-4.27-4.27-8.53,0-12.8l19.2-19.2c4.27-4.27,8.53-4.27,12.8,0l19.2,19.2c4.27,4.27,4.27,8.53,0,12.8l-19.2,19.2c-4.27,4.27-8.53,4.27-12.8,0l-19.2-19.2Z"/>
        </g>
        <g id="shape_other_4_1-30" data-name="shape other 4 1">
          <path d="m171.2,707.2c-4.8-4.8-4.8-9.6,0-14.4l21.6-21.6c4.8-4.8,9.6-4.8,14.4,0l21.6,21.6c4.8,4.8,4.8,9.6,0,14.4l-21.6,21.6c-4.8,4.8-9.6,4.8-14.4,0l-21.6-21.6Z"/>
        </g>
        <g id="shape_other_4_1-31" data-name="shape other 4 1">
          <path d="m168,808c-5.33-5.33-5.33-10.67,0-16l24-24c5.33-5.33,10.67-5.33,16,0l24,24c5.33,5.33,5.33,10.67,0,16l-24,24c-5.33,5.33-10.67,5.33-16,0l-24-24Z"/>
        </g>
        <g id="shape_other_4_1-32" data-name="shape other 4 1">
          <path d="m164.8,908.8c-5.87-5.87-5.87-11.73,0-17.6l26.4-26.4c5.87-5.87,11.73-5.87,17.6,0l26.4,26.4c5.87,5.87,5.87,11.73,0,17.6l-26.4,26.4c-5.87,5.87-11.73,5.87-17.6,0l-26.4-26.4Z"/>
        </g>
        <g id="shape_other_4_1-33" data-name="shape other 4 1">
          <path d="m161.6,1009.6c-6.4-6.4-6.4-12.8,0-19.2l28.8-28.8c6.4-6.4,12.8-6.4,19.2,0l28.8,28.8c6.4,6.4,6.4,12.8,0,19.2l-28.8,28.8c-6.4,6.4-12.8,6.4-19.2,0l-28.8-28.8Z"/>
        </g>
        <g id="shape_other_4_1-34" data-name="shape other 4 1">
          <path d="m293.6,1.6c-1.07-1.07-1.07-2.13,0-3.2l4.8-4.8c1.07-1.07,2.13-1.07,3.2,0l4.8,4.8c1.07,1.07,1.07,2.13,0,3.2l-4.8,4.8c-1.07,1.07-2.13,1.07-3.2,0l-4.8-4.8Z"/>
        </g>
        <g id="shape_other_4_1-35" data-name="shape other 4 1">
          <path d="m290.4,102.4c-1.6-1.6-1.6-3.2,0-4.8l7.2-7.2c1.6-1.6,3.2-1.6,4.8,0l7.2,7.2c1.6,1.6,1.6,3.2,0,4.8l-7.2,7.2c-1.6,1.6-3.2,1.6-4.8,0l-7.2-7.2Z"/>
        </g>
        <g id="shape_other_4_1-36" data-name="shape other 4 1">
          <path d="m287.2,203.2c-2.13-2.13-2.13-4.27,0-6.4l9.6-9.6c2.13-2.13,4.27-2.13,6.4,0l9.6,9.6c2.13,2.13,2.13,4.27,0,6.4l-9.6,9.6c-2.13,2.13-4.27,2.13-6.4,0l-9.6-9.6Z"/>
        </g>
        <g id="shape_other_4_1-37" data-name="shape other 4 1">
          <path d="m284,304c-2.67-2.67-2.67-5.33,0-8l12-12c2.67-2.67,5.33-2.67,8,0l12,12c2.67,2.67,2.67,5.33,0,8l-12,12c-2.67,2.67-5.33,2.67-8,0l-12-12Z"/>
        </g>
        <g id="shape_other_4_1-38" data-name="shape other 4 1">
          <path d="m280.8,404.8c-3.2-3.2-3.2-6.4,0-9.6l14.4-14.4c3.2-3.2,6.4-3.2,9.6,0l14.4,14.4c3.2,3.2,3.2,6.4,0,9.6l-14.4,14.4c-3.2,3.2-6.4,3.2-9.6,0l-14.4-14.4Z"/>
        </g>
        <g id="shape_other_4_1-39" data-name="shape other 4 1">
          <path d="m277.6,505.6c-3.73-3.73-3.73-7.47,0-11.2l16.8-16.8c3.73-3.73,7.47-3.73,11.2,0l16.8,16.8c3.73,3.73,3.73,7.47,0,11.2l-16.8,16.8c-3.73,3.73-7.47,3.73-11.2,0l-16.8-16.8Z"/>
        </g>
        <g id="shape_other_4_1-40" data-name="shape other 4 1">
          <path d="m274.4,606.4c-4.27-4.27-4.27-8.53,0-12.8l19.2-19.2c4.27-4.27,8.53-4.27,12.8,0l19.2,19.2c4.27,4.27,4.27,8.53,0,12.8l-19.2,19.2c-4.27,4.27-8.53,4.27-12.8,0l-19.2-19.2Z"/>
        </g>
        <g id="shape_other_4_1-41" data-name="shape other 4 1">
          <path d="m271.2,707.2c-4.8-4.8-4.8-9.6,0-14.4l21.6-21.6c4.8-4.8,9.6-4.8,14.4,0l21.6,21.6c4.8,4.8,4.8,9.6,0,14.4l-21.6,21.6c-4.8,4.8-9.6,4.8-14.4,0l-21.6-21.6Z"/>
        </g>
        <g id="shape_other_4_1-42" data-name="shape other 4 1">
          <path d="m268,808c-5.33-5.33-5.33-10.67,0-16l24-24c5.33-5.33,10.67-5.33,16,0l24,24c5.33,5.33,5.33,10.67,0,16l-24,24c-5.33,5.33-10.67,5.33-16,0l-24-24Z"/>
        </g>
        <g id="shape_other_4_1-43" data-name="shape other 4 1">
          <path d="m264.8,908.8c-5.87-5.87-5.87-11.73,0-17.6l26.4-26.4c5.87-5.87,11.73-5.87,17.6,0l26.4,26.4c5.87,5.87,5.87,11.73,0,17.6l-26.4,26.4c-5.87,5.87-11.73,5.87-17.6,0l-26.4-26.4Z"/>
        </g>
        <g id="shape_other_4_1-44" data-name="shape other 4 1">
          <path d="m261.6,1009.6c-6.4-6.4-6.4-12.8,0-19.2l28.8-28.8c6.4-6.4,12.8-6.4,19.2,0l28.8,28.8c6.4,6.4,6.4,12.8,0,19.2l-28.8,28.8c-6.4,6.4-12.8,6.4-19.2,0l-28.8-28.8Z"/>
        </g>
        <g id="shape_other_4_1-45" data-name="shape other 4 1">
          <path d="m393.6,1.6c-1.07-1.07-1.07-2.13,0-3.2l4.8-4.8c1.07-1.07,2.13-1.07,3.2,0l4.8,4.8c1.07,1.07,1.07,2.13,0,3.2l-4.8,4.8c-1.07,1.07-2.13,1.07-3.2,0l-4.8-4.8Z"/>
        </g>
        <g id="shape_other_4_1-46" data-name="shape other 4 1">
          <path d="m390.4,102.4c-1.6-1.6-1.6-3.2,0-4.8l7.2-7.2c1.6-1.6,3.2-1.6,4.8,0l7.2,7.2c1.6,1.6,1.6,3.2,0,4.8l-7.2,7.2c-1.6,1.6-3.2,1.6-4.8,0l-7.2-7.2Z"/>
        </g>
        <g id="shape_other_4_1-47" data-name="shape other 4 1">
          <path d="m387.2,203.2c-2.13-2.13-2.13-4.27,0-6.4l9.6-9.6c2.13-2.13,4.27-2.13,6.4,0l9.6,9.6c2.13,2.13,2.13,4.27,0,6.4l-9.6,9.6c-2.13,2.13-4.27,2.13-6.4,0l-9.6-9.6Z"/>
        </g>
        <g id="shape_other_4_1-48" data-name="shape other 4 1">
          <path d="m384,304c-2.67-2.67-2.67-5.33,0-8l12-12c2.67-2.67,5.33-2.67,8,0l12,12c2.67,2.67,2.67,5.33,0,8l-12,12c-2.67,2.67-5.33,2.67-8,0l-12-12Z"/>
        </g>
        <g id="shape_other_4_1-49" data-name="shape other 4 1">
          <path d="m380.8,404.8c-3.2-3.2-3.2-6.4,0-9.6l14.4-14.4c3.2-3.2,6.4-3.2,9.6,0l14.4,14.4c3.2,3.2,3.2,6.4,0,9.6l-14.4,14.4c-3.2,3.2-6.4,3.2-9.6,0l-14.4-14.4Z"/>
        </g>
        <g id="shape_other_4_1-50" data-name="shape other 4 1">
          <path d="m377.6,505.6c-3.73-3.73-3.73-7.47,0-11.2l16.8-16.8c3.73-3.73,7.47-3.73,11.2,0l16.8,16.8c3.73,3.73,3.73,7.47,0,11.2l-16.8,16.8c-3.73,3.73-7.47,3.73-11.2,0l-16.8-16.8Z"/>
        </g>
        <g id="shape_other_4_1-51" data-name="shape other 4 1">
          <path d="m374.4,606.4c-4.27-4.27-4.27-8.53,0-12.8l19.2-19.2c4.27-4.27,8.53-4.27,12.8,0l19.2,19.2c4.27,4.27,4.27,8.53,0,12.8l-19.2,19.2c-4.27,4.27-8.53,4.27-12.8,0l-19.2-19.2Z"/>
        </g>
        <g id="shape_other_4_1-52" data-name="shape other 4 1">
          <path d="m371.2,707.2c-4.8-4.8-4.8-9.6,0-14.4l21.6-21.6c4.8-4.8,9.6-4.8,14.4,0l21.6,21.6c4.8,4.8,4.8,9.6,0,14.4l-21.6,21.6c-4.8,4.8-9.6,4.8-14.4,0l-21.6-21.6Z"/>
        </g>
        <g id="shape_other_4_1-53" data-name="shape other 4 1">
          <path d="m368,808c-5.33-5.33-5.33-10.67,0-16l24-24c5.33-5.33,10.67-5.33,16,0l24,24c5.33,5.33,5.33,10.67,0,16l-24,24c-5.33,5.33-10.67,5.33-16,0l-24-24Z"/>
        </g>
        <g id="shape_other_4_1-54" data-name="shape other 4 1">
          <path d="m364.8,908.8c-5.87-5.87-5.87-11.73,0-17.6l26.4-26.4c5.87-5.87,11.73-5.87,17.6,0l26.4,26.4c5.87,5.87,5.87,11.73,0,17.6l-26.4,26.4c-5.87,5.87-11.73,5.87-17.6,0l-26.4-26.4Z"/>
        </g>
        <g id="shape_other_4_1-55" data-name="shape other 4 1">
          <path d="m361.6,1009.6c-6.4-6.4-6.4-12.8,0-19.2l28.8-28.8c6.4-6.4,12.8-6.4,19.2,0l28.8,28.8c6.4,6.4,6.4,12.8,0,19.2l-28.8,28.8c-6.4,6.4-12.8,6.4-19.2,0l-28.8-28.8Z"/>
        </g>
        <g id="shape_other_4_1-56" data-name="shape other 4 1">
          <path d="m493.6,1.6c-1.07-1.07-1.07-2.13,0-3.2l4.8-4.8c1.07-1.07,2.13-1.07,3.2,0l4.8,4.8c1.07,1.07,1.07,2.13,0,3.2l-4.8,4.8c-1.07,1.07-2.13,1.07-3.2,0l-4.8-4.8Z"/>
        </g>
        <g id="shape_other_4_1-57" data-name="shape other 4 1">
          <path d="m490.4,102.4c-1.6-1.6-1.6-3.2,0-4.8l7.2-7.2c1.6-1.6,3.2-1.6,4.8,0l7.2,7.2c1.6,1.6,1.6,3.2,0,4.8l-7.2,7.2c-1.6,1.6-3.2,1.6-4.8,0l-7.2-7.2Z"/>
        </g>
        <g id="shape_other_4_1-58" data-name="shape other 4 1">
          <path d="m487.2,203.2c-2.13-2.13-2.13-4.27,0-6.4l9.6-9.6c2.13-2.13,4.27-2.13,6.4,0l9.6,9.6c2.13,2.13,2.13,4.27,0,6.4l-9.6,9.6c-2.13,2.13-4.27,2.13-6.4,0l-9.6-9.6Z"/>
        </g>
        <g id="shape_other_4_1-59" data-name="shape other 4 1">
          <path d="m484,304c-2.67-2.67-2.67-5.33,0-8l12-12c2.67-2.67,5.33-2.67,8,0l12,12c2.67,2.67,2.67,5.33,0,8l-12,12c-2.67,2.67-5.33,2.67-8,0l-12-12Z"/>
        </g>
        <g id="shape_other_4_1-60" data-name="shape other 4 1">
          <path d="m480.8,404.8c-3.2-3.2-3.2-6.4,0-9.6l14.4-14.4c3.2-3.2,6.4-3.2,9.6,0l14.4,14.4c3.2,3.2,3.2,6.4,0,9.6l-14.4,14.4c-3.2,3.2-6.4,3.2-9.6,0l-14.4-14.4Z"/>
        </g>
        <g id="shape_other_4_1-61" data-name="shape other 4 1">
          <path d="m477.6,505.6c-3.73-3.73-3.73-7.47,0-11.2l16.8-16.8c3.73-3.73,7.47-3.73,11.2,0l16.8,16.8c3.73,3.73,3.73,7.47,0,11.2l-16.8,16.8c-3.73,3.73-7.47,3.73-11.2,0l-16.8-16.8Z"/>
        </g>
        <g id="shape_other_4_1-62" data-name="shape other 4 1">
          <path d="m474.4,606.4c-4.27-4.27-4.27-8.53,0-12.8l19.2-19.2c4.27-4.27,8.53-4.27,12.8,0l19.2,19.2c4.27,4.27,4.27,8.53,0,12.8l-19.2,19.2c-4.27,4.27-8.53,4.27-12.8,0l-19.2-19.2Z"/>
        </g>
        <g id="shape_other_4_1-63" data-name="shape other 4 1">
          <path d="m471.2,707.2c-4.8-4.8-4.8-9.6,0-14.4l21.6-21.6c4.8-4.8,9.6-4.8,14.4,0l21.6,21.6c4.8,4.8,4.8,9.6,0,14.4l-21.6,21.6c-4.8,4.8-9.6,4.8-14.4,0l-21.6-21.6Z"/>
        </g>
        <g id="shape_other_4_1-64" data-name="shape other 4 1">
          <path d="m468,808c-5.33-5.33-5.33-10.67,0-16l24-24c5.33-5.33,10.67-5.33,16,0l24,24c5.33,5.33,5.33,10.67,0,16l-24,24c-5.33,5.33-10.67,5.33-16,0l-24-24Z"/>
        </g>
        <g id="shape_other_4_1-65" data-name="shape other 4 1">
          <path d="m464.8,908.8c-5.87-5.87-5.87-11.73,0-17.6l26.4-26.4c5.87-5.87,11.73-5.87,17.6,0l26.4,26.4c5.87,5.87,5.87,11.73,0,17.6l-26.4,26.4c-5.87,5.87-11.73,5.87-17.6,0l-26.4-26.4Z"/>
        </g>
        <g id="shape_other_4_1-66" data-name="shape other 4 1">
          <path d="m461.6,1009.6c-6.4-6.4-6.4-12.8,0-19.2l28.8-28.8c6.4-6.4,12.8-6.4,19.2,0l28.8,28.8c6.4,6.4,6.4,12.8,0,19.2l-28.8,28.8c-6.4,6.4-12.8,6.4-19.2,0l-28.8-28.8Z"/>
        </g>
        <g id="shape_other_4_1-67" data-name="shape other 4 1">
          <path d="m593.6,1.6c-1.07-1.07-1.07-2.13,0-3.2l4.8-4.8c1.07-1.07,2.13-1.07,3.2,0l4.8,4.8c1.07,1.07,1.07,2.13,0,3.2l-4.8,4.8c-1.07,1.07-2.13,1.07-3.2,0l-4.8-4.8Z"/>
        </g>
        <g id="shape_other_4_1-68" data-name="shape other 4 1">
          <path d="m590.4,102.4c-1.6-1.6-1.6-3.2,0-4.8l7.2-7.2c1.6-1.6,3.2-1.6,4.8,0l7.2,7.2c1.6,1.6,1.6,3.2,0,4.8l-7.2,7.2c-1.6,1.6-3.2,1.6-4.8,0l-7.2-7.2Z"/>
        </g>
        <g id="shape_other_4_1-69" data-name="shape other 4 1">
          <path d="m587.2,203.2c-2.13-2.13-2.13-4.27,0-6.4l9.6-9.6c2.13-2.13,4.27-2.13,6.4,0l9.6,9.6c2.13,2.13,2.13,4.27,0,6.4l-9.6,9.6c-2.13,2.13-4.27,2.13-6.4,0l-9.6-9.6Z"/>
        </g>
        <g id="shape_other_4_1-70" data-name="shape other 4 1">
          <path d="m584,304c-2.67-2.67-2.67-5.33,0-8l12-12c2.67-2.67,5.33-2.67,8,0l12,12c2.67,2.67,2.67,5.33,0,8l-12,12c-2.67,2.67-5.33,2.67-8,0l-12-12Z"/>
        </g>
        <g id="shape_other_4_1-71" data-name="shape other 4 1">
          <path d="m580.8,404.8c-3.2-3.2-3.2-6.4,0-9.6l14.4-14.4c3.2-3.2,6.4-3.2,9.6,0l14.4,14.4c3.2,3.2,3.2,6.4,0,9.6l-14.4,14.4c-3.2,3.2-6.4,3.2-9.6,0l-14.4-14.4Z"/>
        </g>
        <g id="shape_other_4_1-72" data-name="shape other 4 1">
          <path d="m577.6,505.6c-3.73-3.73-3.73-7.47,0-11.2l16.8-16.8c3.73-3.73,7.47-3.73,11.2,0l16.8,16.8c3.73,3.73,3.73,7.47,0,11.2l-16.8,16.8c-3.73,3.73-7.47,3.73-11.2,0l-16.8-16.8Z"/>
        </g>
        <g id="shape_other_4_1-73" data-name="shape other 4 1">
          <path d="m574.4,606.4c-4.27-4.27-4.27-8.53,0-12.8l19.2-19.2c4.27-4.27,8.53-4.27,12.8,0l19.2,19.2c4.27,4.27,4.27,8.53,0,12.8l-19.2,19.2c-4.27,4.27-8.53,4.27-12.8,0l-19.2-19.2Z"/>
        </g>
        <g id="shape_other_4_1-74" data-name="shape other 4 1">
          <path d="m571.2,707.2c-4.8-4.8-4.8-9.6,0-14.4l21.6-21.6c4.8-4.8,9.6-4.8,14.4,0l21.6,21.6c4.8,4.8,4.8,9.6,0,14.4l-21.6,21.6c-4.8,4.8-9.6,4.8-14.4,0l-21.6-21.6Z"/>
        </g>
        <g id="shape_other_4_1-75" data-name="shape other 4 1">
          <path d="m568,808c-5.33-5.33-5.33-10.67,0-16l24-24c5.33-5.33,10.67-5.33,16,0l24,24c5.33,5.33,5.33,10.67,0,16l-24,24c-5.33,5.33-10.67,5.33-16,0l-24-24Z"/>
        </g>
        <g id="shape_other_4_1-76" data-name="shape other 4 1">
          <path d="m564.8,908.8c-5.87-5.87-5.87-11.73,0-17.6l26.4-26.4c5.87-5.87,11.73-5.87,17.6,0l26.4,26.4c5.87,5.87,5.87,11.73,0,17.6l-26.4,26.4c-5.87,5.87-11.73,5.87-17.6,0l-26.4-26.4Z"/>
        </g>
        <g id="shape_other_4_1-77" data-name="shape other 4 1">
          <path d="m561.6,1009.6c-6.4-6.4-6.4-12.8,0-19.2l28.8-28.8c6.4-6.4,12.8-6.4,19.2,0l28.8,28.8c6.4,6.4,6.4,12.8,0,19.2l-28.8,28.8c-6.4,6.4-12.8,6.4-19.2,0l-28.8-28.8Z"/>
        </g>
        <g id="shape_other_4_1-78" data-name="shape other 4 1">
          <path d="m693.6,1.6c-1.07-1.07-1.07-2.13,0-3.2l4.8-4.8c1.07-1.07,2.13-1.07,3.2,0l4.8,4.8c1.07,1.07,1.07,2.13,0,3.2l-4.8,4.8c-1.07,1.07-2.13,1.07-3.2,0l-4.8-4.8Z"/>
        </g>
        <g id="shape_other_4_1-79" data-name="shape other 4 1">
          <path d="m690.4,102.4c-1.6-1.6-1.6-3.2,0-4.8l7.2-7.2c1.6-1.6,3.2-1.6,4.8,0l7.2,7.2c1.6,1.6,1.6,3.2,0,4.8l-7.2,7.2c-1.6,1.6-3.2,1.6-4.8,0l-7.2-7.2Z"/>
        </g>
        <g id="shape_other_4_1-80" data-name="shape other 4 1">
          <path d="m687.2,203.2c-2.13-2.13-2.13-4.27,0-6.4l9.6-9.6c2.13-2.13,4.27-2.13,6.4,0l9.6,9.6c2.13,2.13,2.13,4.27,0,6.4l-9.6,9.6c-2.13,2.13-4.27,2.13-6.4,0l-9.6-9.6Z"/>
        </g>
        <g id="shape_other_4_1-81" data-name="shape other 4 1">
          <path d="m684,304c-2.67-2.67-2.67-5.33,0-8l12-12c2.67-2.67,5.33-2.67,8,0l12,12c2.67,2.67,2.67,5.33,0,8l-12,12c-2.67,2.67-5.33,2.67-8,0l-12-12Z"/>
        </g>
        <g id="shape_other_4_1-82" data-name="shape other 4 1">
          <path d="m680.8,404.8c-3.2-3.2-3.2-6.4,0-9.6l14.4-14.4c3.2-3.2,6.4-3.2,9.6,0l14.4,14.4c3.2,3.2,3.2,6.4,0,9.6l-14.4,14.4c-3.2,3.2-6.4,3.2-9.6,0l-14.4-14.4Z"/>
        </g>
        <g id="shape_other_4_1-83" data-name="shape other 4 1">
          <path d="m677.6,505.6c-3.73-3.73-3.73-7.47,0-11.2l16.8-16.8c3.73-3.73,7.47-3.73,11.2,0l16.8,16.8c3.73,3.73,3.73,7.47,0,11.2l-16.8,16.8c-3.73,3.73-7.47,3.73-11.2,0l-16.8-16.8Z"/>
        </g>
        <g id="shape_other_4_1-84" data-name="shape other 4 1">
          <path d="m674.4,606.4c-4.27-4.27-4.27-8.53,0-12.8l19.2-19.2c4.27-4.27,8.53-4.27,12.8,0l19.2,19.2c4.27,4.27,4.27,8.53,0,12.8l-19.2,19.2c-4.27,4.27-8.53,4.27-12.8,0l-19.2-19.2Z"/>
        </g>
        <g id="shape_other_4_1-85" data-name="shape other 4 1">
          <path d="m671.2,707.2c-4.8-4.8-4.8-9.6,0-14.4l21.6-21.6c4.8-4.8,9.6-4.8,14.4,0l21.6,21.6c4.8,4.8,4.8,9.6,0,14.4l-21.6,21.6c-4.8,4.8-9.6,4.8-14.4,0l-21.6-21.6Z"/>
        </g>
        <g id="shape_other_4_1-86" data-name="shape other 4 1">
          <path d="m668,808c-5.33-5.33-5.33-10.67,0-16l24-24c5.33-5.33,10.67-5.33,16,0l24,24c5.33,5.33,5.33,10.67,0,16l-24,24c-5.33,5.33-10.67,5.33-16,0l-24-24Z"/>
        </g>
        <g id="shape_other_4_1-87" data-name="shape other 4 1">
          <path d="m664.8,908.8c-5.87-5.87-5.87-11.73,0-17.6l26.4-26.4c5.87-5.87,11.73-5.87,17.6,0l26.4,26.4c5.87,5.87,5.87,11.73,0,17.6l-26.4,26.4c-5.87,5.87-11.73,5.87-17.6,0l-26.4-26.4Z"/>
        </g>
        <g id="shape_other_4_1-88" data-name="shape other 4 1">
          <path d="m661.6,1009.6c-6.4-6.4-6.4-12.8,0-19.2l28.8-28.8c6.4-6.4,12.8-6.4,19.2,0l28.8,28.8c6.4,6.4,6.4,12.8,0,19.2l-28.8,28.8c-6.4,6.4-12.8,6.4-19.2,0l-28.8-28.8Z"/>
        </g>
        <g id="shape_other_4_1-89" data-name="shape other 4 1">
          <path d="m793.6,1.6c-1.07-1.07-1.07-2.13,0-3.2l4.8-4.8c1.07-1.07,2.13-1.07,3.2,0l4.8,4.8c1.07,1.07,1.07,2.13,0,3.2l-4.8,4.8c-1.07,1.07-2.13,1.07-3.2,0l-4.8-4.8Z"/>
        </g>
        <g id="shape_other_4_1-90" data-name="shape other 4 1">
          <path d="m790.4,102.4c-1.6-1.6-1.6-3.2,0-4.8l7.2-7.2c1.6-1.6,3.2-1.6,4.8,0l7.2,7.2c1.6,1.6,1.6,3.2,0,4.8l-7.2,7.2c-1.6,1.6-3.2,1.6-4.8,0l-7.2-7.2Z"/>
        </g>
        <g id="shape_other_4_1-91" data-name="shape other 4 1">
          <path d="m787.2,203.2c-2.13-2.13-2.13-4.27,0-6.4l9.6-9.6c2.13-2.13,4.27-2.13,6.4,0l9.6,9.6c2.13,2.13,2.13,4.27,0,6.4l-9.6,9.6c-2.13,2.13-4.27,2.13-6.4,0l-9.6-9.6Z"/>
        </g>
        <g id="shape_other_4_1-92" data-name="shape other 4 1">
          <path d="m784,304c-2.67-2.67-2.67-5.33,0-8l12-12c2.67-2.67,5.33-2.67,8,0l12,12c2.67,2.67,2.67,5.33,0,8l-12,12c-2.67,2.67-5.33,2.67-8,0l-12-12Z"/>
        </g>
        <g id="shape_other_4_1-93" data-name="shape other 4 1">
          <path d="m780.8,404.8c-3.2-3.2-3.2-6.4,0-9.6l14.4-14.4c3.2-3.2,6.4-3.2,9.6,0l14.4,14.4c3.2,3.2,3.2,6.4,0,9.6l-14.4,14.4c-3.2,3.2-6.4,3.2-9.6,0l-14.4-14.4Z"/>
        </g>
        <g id="shape_other_4_1-94" data-name="shape other 4 1">
          <path d="m777.6,505.6c-3.73-3.73-3.73-7.47,0-11.2l16.8-16.8c3.73-3.73,7.47-3.73,11.2,0l16.8,16.8c3.73,3.73,3.73,7.47,0,11.2l-16.8,16.8c-3.73,3.73-7.47,3.73-11.2,0l-16.8-16.8Z"/>
        </g>
        <g id="shape_other_4_1-95" data-name="shape other 4 1">
          <path d="m774.4,606.4c-4.27-4.27-4.27-8.53,0-12.8l19.2-19.2c4.27-4.27,8.53-4.27,12.8,0l19.2,19.2c4.27,4.27,4.27,8.53,0,12.8l-19.2,19.2c-4.27,4.27-8.53,4.27-12.8,0l-19.2-19.2Z"/>
        </g>
        <g id="shape_other_4_1-96" data-name="shape other 4 1">
          <path d="m771.2,707.2c-4.8-4.8-4.8-9.6,0-14.4l21.6-21.6c4.8-4.8,9.6-4.8,14.4,0l21.6,21.6c4.8,4.8,4.8,9.6,0,14.4l-21.6,21.6c-4.8,4.8-9.6,4.8-14.4,0l-21.6-21.6Z"/>
        </g>
        <g id="shape_other_4_1-97" data-name="shape other 4 1">
          <path d="m768,808c-5.33-5.33-5.33-10.67,0-16l24-24c5.33-5.33,10.67-5.33,16,0l24,24c5.33,5.33,5.33,10.67,0,16l-24,24c-5.33,5.33-10.67,5.33-16,0l-24-24Z"/>
        </g>
        <g id="shape_other_4_1-98" data-name="shape other 4 1">
          <path d="m764.8,908.8c-5.87-5.87-5.87-11.73,0-17.6l26.4-26.4c5.87-5.87,11.73-5.87,17.6,0l26.4,26.4c5.87,5.87,5.87,11.73,0,17.6l-26.4,26.4c-5.87,5.87-11.73,5.87-17.6,0l-26.4-26.4Z"/>
        </g>
        <g id="shape_other_4_1-99" data-name="shape other 4 1">
          <path d="m761.6,1009.6c-6.4-6.4-6.4-12.8,0-19.2l28.8-28.8c6.4-6.4,12.8-6.4,19.2,0l28.8,28.8c6.4,6.4,6.4,12.8,0,19.2l-28.8,28.8c-6.4,6.4-12.8,6.4-19.2,0l-28.8-28.8Z"/>
        </g>
        <g id="shape_other_4_1-100" data-name="shape other 4 1">
          <path d="m893.6,1.6c-1.07-1.07-1.07-2.13,0-3.2l4.8-4.8c1.07-1.07,2.13-1.07,3.2,0l4.8,4.8c1.07,1.07,1.07,2.13,0,3.2l-4.8,4.8c-1.07,1.07-2.13,1.07-3.2,0l-4.8-4.8Z"/>
        </g>
        <g id="shape_other_4_1-101" data-name="shape other 4 1">
          <path d="m890.4,102.4c-1.6-1.6-1.6-3.2,0-4.8l7.2-7.2c1.6-1.6,3.2-1.6,4.8,0l7.2,7.2c1.6,1.6,1.6,3.2,0,4.8l-7.2,7.2c-1.6,1.6-3.2,1.6-4.8,0l-7.2-7.2Z"/>
        </g>
        <g id="shape_other_4_1-102" data-name="shape other 4 1">
          <path d="m887.2,203.2c-2.13-2.13-2.13-4.27,0-6.4l9.6-9.6c2.13-2.13,4.27-2.13,6.4,0l9.6,9.6c2.13,2.13,2.13,4.27,0,6.4l-9.6,9.6c-2.13,2.13-4.27,2.13-6.4,0l-9.6-9.6Z"/>
        </g>
        <g id="shape_other_4_1-103" data-name="shape other 4 1">
          <path d="m884,304c-2.67-2.67-2.67-5.33,0-8l12-12c2.67-2.67,5.33-2.67,8,0l12,12c2.67,2.67,2.67,5.33,0,8l-12,12c-2.67,2.67-5.33,2.67-8,0l-12-12Z"/>
        </g>
        <g id="shape_other_4_1-104" data-name="shape other 4 1">
          <path d="m880.8,404.8c-3.2-3.2-3.2-6.4,0-9.6l14.4-14.4c3.2-3.2,6.4-3.2,9.6,0l14.4,14.4c3.2,3.2,3.2,6.4,0,9.6l-14.4,14.4c-3.2,3.2-6.4,3.2-9.6,0l-14.4-14.4Z"/>
        </g>
        <g id="shape_other_4_1-105" data-name="shape other 4 1">
          <path d="m877.6,505.6c-3.73-3.73-3.73-7.47,0-11.2l16.8-16.8c3.73-3.73,7.47-3.73,11.2,0l16.8,16.8c3.73,3.73,3.73,7.47,0,11.2l-16.8,16.8c-3.73,3.73-7.47,3.73-11.2,0l-16.8-16.8Z"/>
        </g>
        <g id="shape_other_4_1-106" data-name="shape other 4 1">
          <path d="m874.4,606.4c-4.27-4.27-4.27-8.53,0-12.8l19.2-19.2c4.27-4.27,8.53-4.27,12.8,0l19.2,19.2c4.27,4.27,4.27,8.53,0,12.8l-19.2,19.2c-4.27,4.27-8.53,4.27-12.8,0l-19.2-19.2Z"/>
        </g>
        <g id="shape_other_4_1-107" data-name="shape other 4 1">
          <path d="m871.2,707.2c-4.8-4.8-4.8-9.6,0-14.4l21.6-21.6c4.8-4.8,9.6-4.8,14.4,0l21.6,21.6c4.8,4.8,4.8,9.6,0,14.4l-21.6,21.6c-4.8,4.8-9.6,4.8-14.4,0l-21.6-21.6Z"/>
        </g>
        <g id="shape_other_4_1-108" data-name="shape other 4 1">
          <path d="m868,808c-5.33-5.33-5.33-10.67,0-16l24-24c5.33-5.33,10.67-5.33,16,0l24,24c5.33,5.33,5.33,10.67,0,16l-24,24c-5.33,5.33-10.67,5.33-16,0l-24-24Z"/>
        </g>
        <g id="shape_other_4_1-109" data-name="shape other 4 1">
          <path d="m864.8,908.8c-5.87-5.87-5.87-11.73,0-17.6l26.4-26.4c5.87-5.87,11.73-5.87,17.6,0l26.4,26.4c5.87,5.87,5.87,11.73,0,17.6l-26.4,26.4c-5.87,5.87-11.73,5.87-17.6,0l-26.4-26.4Z"/>
        </g>
        <g id="shape_other_4_1-110" data-name="shape other 4 1">
          <path d="m861.6,1009.6c-6.4-6.4-6.4-12.8,0-19.2l28.8-28.8c6.4-6.4,12.8-6.4,19.2,0l28.8,28.8c6.4,6.4,6.4,12.8,0,19.2l-28.8,28.8c-6.4,6.4-12.8,6.4-19.2,0l-28.8-28.8Z"/>
        </g>
        <g id="shape_other_4_1-111" data-name="shape other 4 1">
          <path d="m993.6,1.6c-1.07-1.07-1.07-2.13,0-3.2l4.8-4.8c1.07-1.07,2.13-1.07,3.2,0l4.8,4.8c1.07,1.07,1.07,2.13,0,3.2l-4.8,4.8c-1.07,1.07-2.13,1.07-3.2,0l-4.8-4.8Z"/>
        </g>
        <g id="shape_other_4_1-112" data-name="shape other 4 1">
          <path d="m990.4,102.4c-1.6-1.6-1.6-3.2,0-4.8l7.2-7.2c1.6-1.6,3.2-1.6,4.8,0l7.2,7.2c1.6,1.6,1.6,3.2,0,4.8l-7.2,7.2c-1.6,1.6-3.2,1.6-4.8,0l-7.2-7.2Z"/>
        </g>
        <g id="shape_other_4_1-113" data-name="shape other 4 1">
          <path d="m987.2,203.2c-2.13-2.13-2.13-4.27,0-6.4l9.6-9.6c2.13-2.13,4.27-2.13,6.4,0l9.6,9.6c2.13,2.13,2.13,4.27,0,6.4l-9.6,9.6c-2.13,2.13-4.27,2.13-6.4,0l-9.6-9.6Z"/>
        </g>
        <g id="shape_other_4_1-114" data-name="shape other 4 1">
          <path d="m984,304c-2.67-2.67-2.67-5.33,0-8l12-12c2.67-2.67,5.33-2.67,8,0l12,12c2.67,2.67,2.67,5.33,0,8l-12,12c-2.67,2.67-5.33,2.67-8,0l-12-12Z"/>
        </g>
        <g id="shape_other_4_1-115" data-name="shape other 4 1">
          <path d="m980.8,404.8c-3.2-3.2-3.2-6.4,0-9.6l14.4-14.4c3.2-3.2,6.4-3.2,9.6,0l14.4,14.4c3.2,3.2,3.2,6.4,0,9.6l-14.4,14.4c-3.2,3.2-6.4,3.2-9.6,0l-14.4-14.4Z"/>
        </g>
        <g id="shape_other_4_1-116" data-name="shape other 4 1">
          <path d="m977.6,505.6c-3.73-3.73-3.73-7.47,0-11.2l16.8-16.8c3.73-3.73,7.47-3.73,11.2,0l16.8,16.8c3.73,3.73,3.73,7.47,0,11.2l-16.8,16.8c-3.73,3.73-7.47,3.73-11.2,0l-16.8-16.8Z"/>
        </g>
        <g id="shape_other_4_1-117" data-name="shape other 4 1">
          <path d="m974.4,606.4c-4.27-4.27-4.27-8.53,0-12.8l19.2-19.2c4.27-4.27,8.53-4.27,12.8,0l19.2,19.2c4.27,4.27,4.27,8.53,0,12.8l-19.2,19.2c-4.27,4.27-8.53,4.27-12.8,0l-19.2-19.2Z"/>
        </g>
        <g id="shape_other_4_1-118" data-name="shape other 4 1">
          <path d="m971.2,707.2c-4.8-4.8-4.8-9.6,0-14.4l21.6-21.6c4.8-4.8,9.6-4.8,14.4,0l21.6,21.6c4.8,4.8,4.8,9.6,0,14.4l-21.6,21.6c-4.8,4.8-9.6,4.8-14.4,0l-21.6-21.6Z"/>
        </g>
        <g id="shape_other_4_1-119" data-name="shape other 4 1">
          <path d="m968,808c-5.33-5.33-5.33-10.67,0-16l24-24c5.33-5.33,10.67-5.33,16,0l24,24c5.33,5.33,5.33,10.67,0,16l-24,24c-5.33,5.33-10.67,5.33-16,0l-24-24Z"/>
        </g>
        <g id="shape_other_4_1-120" data-name="shape other 4 1">
          <path d="m964.8,908.8c-5.87-5.87-5.87-11.73,0-17.6l26.4-26.4c5.87-5.87,11.73-5.87,17.6,0l26.4,26.4c5.87,5.87,5.87,11.73,0,17.6l-26.4,26.4c-5.87,5.87-11.73,5.87-17.6,0l-26.4-26.4Z"/>
        </g>
        <g id="shape_other_4_1-121" data-name="shape other 4 1">
          <path d="m961.6,1009.6c-6.4-6.4-6.4-12.8,0-19.2l28.8-28.8c6.4-6.4,12.8-6.4,19.2,0l28.8,28.8c6.4,6.4,6.4,12.8,0,19.2l-28.8,28.8c-6.4,6.4-12.8,6.4-19.2,0l-28.8-28.8Z"/>
        </g>
      </g>
    </g>
  </g>
</svg>